<svg width="32" height="21" viewBox="0 0 32 21" fill="none" xmlns="http://www.w3.org/2000/svg">
<g clip-path="url(#clip0_1431_136223)">
<path d="M9.30363 0C9.77882 0 10.229 0.018757 10.6542 0.0562719C11.0793 0.0937867 11.4795 0.150059 11.8546 0.225087C12.2548 0.300117 12.6174 0.406408 12.9426 0.543963C13.2677 0.681517 13.5678 0.850331 13.8429 1.05041C14.118 1.22548 14.3681 1.43806 14.5932 1.68816C14.8183 1.93826 15.0059 2.22587 15.1559 2.551C15.306 2.85112 15.4185 3.195 15.4936 3.58265C15.5686 3.9703 15.6061 4.38921 15.6061 4.83939C15.6061 5.33959 15.5498 5.79601 15.4373 6.20868C15.3247 6.62134 15.1559 7.00273 14.9308 7.35287C14.7057 7.678 14.4244 7.97812 14.0868 8.25322C13.7491 8.52833 13.3552 8.76592 12.905 8.966C13.5053 9.14107 14.0305 9.37866 14.4807 9.67878C14.9308 9.9789 15.306 10.354 15.6061 10.8042C15.9062 11.2294 16.1313 11.7046 16.2814 12.2298C16.4314 12.755 16.5064 13.3302 16.5064 13.9555C16.5064 14.4557 16.4564 14.9246 16.3564 15.3623C16.2564 15.7999 16.1188 16.1938 15.9437 16.544C15.7437 16.9191 15.5123 17.2505 15.2497 17.5381C14.9871 17.8257 14.6932 18.0821 14.3681 18.3072C14.043 18.5573 13.6929 18.7636 13.3177 18.9261C12.9426 19.0887 12.5424 19.2325 12.1172 19.3576C11.7171 19.4576 11.3044 19.5389 10.8793 19.6014C10.4541 19.6639 10.0164 19.6952 9.56624 19.6952H0V0H9.30363ZM8.74092 7.95311C9.11606 7.95311 9.4662 7.90309 9.79133 7.80305C10.1165 7.70301 10.4041 7.56546 10.6542 7.39039C10.9043 7.21532 11.0918 6.97773 11.2169 6.67761C11.3419 6.37749 11.4045 6.01485 11.4045 5.58968C11.4045 5.36459 11.3794 5.15827 11.3294 4.97069C11.2794 4.78312 11.2169 4.6143 11.1419 4.46424C11.0668 4.31418 10.973 4.18288 10.8605 4.07034C10.7479 3.9578 10.6166 3.86401 10.4666 3.78898C10.3415 3.68894 10.1977 3.61391 10.0352 3.56389C9.87261 3.51387 9.70379 3.47636 9.52872 3.45135C9.35365 3.40133 9.17233 3.37007 8.98476 3.35756C8.79719 3.34506 8.60336 3.3388 8.40328 3.3388H4.3517V7.95311H8.74092ZM8.966 16.3189C9.19109 16.3189 9.40367 16.3126 9.60375 16.3001C9.80383 16.2876 10.0039 16.2564 10.204 16.2063C10.4041 16.1563 10.5854 16.1 10.7479 16.0375C10.9105 15.975 11.0668 15.8937 11.2169 15.7937C11.3669 15.6936 11.4982 15.5748 11.6108 15.4373C11.7233 15.2997 11.8296 15.1559 11.9297 15.0059C12.0047 14.8308 12.0672 14.637 12.1172 14.4244C12.1673 14.2118 12.1923 13.9805 12.1923 13.7304C12.1923 13.2052 12.1172 12.7675 11.9672 12.4174C11.8171 12.0672 11.6045 11.7796 11.3294 11.5545C11.0543 11.3294 10.7229 11.1669 10.3353 11.0668C9.94763 10.9668 9.52873 10.9168 9.07855 10.9168H4.3517V16.3189H8.966ZM22.6964 16.2438C22.9965 16.544 23.3529 16.7628 23.7655 16.9004C24.1782 17.0379 24.6596 17.1067 25.2099 17.1067C25.61 17.1067 25.9789 17.0567 26.3165 16.9566C26.6542 16.8566 26.973 16.7065 27.2732 16.5064C27.5483 16.3314 27.7733 16.1376 27.9484 15.925C28.1235 15.7124 28.2485 15.4936 28.3236 15.2685H31.7749C31.4998 16.1188 31.1497 16.8503 30.7245 17.4631C30.2993 18.0758 29.7991 18.5698 29.2239 18.9449C28.6487 19.32 28.0172 19.5952 27.3294 19.7702C26.6417 19.9453 25.8976 20.0328 25.0973 20.0328C24.5221 20.0328 23.9844 19.9891 23.4842 19.9015C22.984 19.814 22.5088 19.6827 22.0586 19.5076C21.6084 19.3326 21.1895 19.1137 20.8019 18.8511C20.4142 18.5885 20.0578 18.2946 19.7327 17.9695C19.4326 17.6444 19.1637 17.2818 18.9261 16.8816C18.6886 16.4814 18.4822 16.0563 18.3072 15.6061C18.1321 15.1309 18.0008 14.6432 17.9132 14.143C17.8257 13.6428 17.7819 13.1176 17.7819 12.5674C17.7819 12.0172 17.8257 11.4982 17.9132 11.0106C18.0008 10.5229 18.1321 10.0414 18.3072 9.56624C18.4822 9.11606 18.6948 8.6909 18.9449 8.29074C19.195 7.89058 19.4826 7.52794 19.8077 7.20281C20.1329 6.85267 20.4893 6.54631 20.8769 6.28371C21.2646 6.0211 21.6835 5.78976 22.1336 5.58968C22.5838 5.3896 23.0528 5.2458 23.5404 5.15827C24.0281 5.07073 24.5471 5.02696 25.0973 5.02696C25.6975 5.02696 26.2603 5.08324 26.7855 5.19578C27.3107 5.30832 27.7984 5.47714 28.2485 5.70223C28.6987 5.95233 29.1114 6.23368 29.4865 6.54631C29.8617 6.85893 30.1993 7.21532 30.4994 7.61548C30.7745 8.01563 31.0184 8.44079 31.231 8.89097C31.4435 9.34115 31.6124 9.81633 31.7374 10.3165C31.8624 10.8167 31.95 11.3357 32 11.8734C32.05 12.4111 32.05 12.9551 32 13.5053H21.721C21.721 14.0555 21.8085 14.5807 21.9836 15.0809C22.1587 15.5811 22.3962 15.9687 22.6964 16.2438ZM27.1981 8.77843C26.973 8.50332 26.6667 8.30324 26.279 8.1782C25.8914 8.05315 25.4599 7.99062 24.9848 7.99062C24.6596 7.99062 24.3658 8.01563 24.1032 8.06565C23.8406 8.11567 23.6092 8.1907 23.4091 8.29074C23.2091 8.39078 23.0277 8.50957 22.8652 8.64713C22.7026 8.78468 22.5588 8.92849 22.4338 9.07855C22.3087 9.22861 22.2024 9.39117 22.1149 9.56624C22.0274 9.74131 21.9586 9.91637 21.9086 10.0914C21.8585 10.2665 21.8148 10.4291 21.7773 10.5791C21.7397 10.7292 21.721 10.8792 21.721 11.0293H28.0985C28.0485 10.5291 27.9422 10.0914 27.7796 9.7163C27.617 9.34115 27.4232 9.02853 27.1981 8.77843ZM20.9332 1.31301H28.9238V3.26377H20.9332V1.31301Z" fill="#249CF3"/>
</g>
<defs>
<clipPath id="clip0_1431_136223">
<rect width="32" height="20.0328" fill="white"/>
</clipPath>
</defs>
</svg>
