<svg width="24" height="24" viewBox="0 0 24 24" fill="none" xmlns="http://www.w3.org/2000/svg">
<g clip-path="url(#clip0_2353_41383)">
<path d="M-0.191785 1.22167L2.63664 4.0501L-0.191784 6.87853L6.87928 6.87853L6.87928 -0.192539L4.05086 2.63589L1.22243 -0.192539L-0.191785 1.22167Z" fill="#063554"/>
<path d="M23.1937 1.21874L21.7795 -0.195469L18.9511 2.63296L16.1227 -0.195468L16.1227 6.8756L23.1937 6.8756L20.3653 4.04717L23.1937 1.21874Z" fill="#063554"/>
<path d="M17.0528 16.4045L15.2227 23.2346L18.6868 21.2346L20.6868 24.6987L22.4188 23.6987L20.4188 20.2346L23.8829 18.2346L17.0528 16.4045Z" fill="#063554"/>
<path d="M1.58119 22.6987L3.31324 23.6987L5.31324 20.2346L8.77734 22.2346L6.94722 15.4045L0.11709 17.2346L3.58119 19.2346L1.58119 22.6987Z" fill="#063554"/>
<circle cx="12" cy="12" r="4" fill="#063554"/>
</g>
<defs>
<clipPath id="clip0_2353_41383">
<rect width="24" height="24" fill="white"/>
</clipPath>
</defs>
</svg>
