<svg width="151" height="124" viewBox="0 0 151 124" fill="none" xmlns="http://www.w3.org/2000/svg">
<path d="M75.1281 123.337C105.666 123.337 130.421 118.712 130.421 113.005C130.421 107.299 105.666 102.674 75.1281 102.674C44.5904 102.674 19.8347 107.299 19.8347 113.005C19.8347 118.712 44.5904 123.337 75.1281 123.337Z" fill="#F4F7F9"/>
<path fill-rule="evenodd" clip-rule="evenodd" d="M119.362 82.6534L99.8497 58.6389C98.9134 57.5085 97.5448 56.8242 96.1037 56.8242H54.1507C52.7104 56.8242 51.3419 57.5085 50.4056 58.6389L30.8939 82.6534V95.1993H119.363V82.6534H119.362Z" fill="#9DB9CA"/>
<path fill-rule="evenodd" clip-rule="evenodd" d="M47.4255 25.8291H102.83C103.695 25.8291 104.525 26.1728 105.137 26.7846C105.748 27.3964 106.092 28.2262 106.092 29.0914V105.22C106.092 106.085 105.748 106.915 105.137 107.527C104.525 108.139 103.695 108.482 102.83 108.482H47.4255C46.5603 108.482 45.7305 108.139 45.1187 107.527C44.5069 106.915 44.1632 106.085 44.1632 105.22V29.0914C44.1632 28.2262 44.5069 27.3964 45.1187 26.7846C45.7305 26.1728 46.5603 25.8291 47.4255 25.8291V25.8291Z" fill="#F4F7F9"/>
<path fill-rule="evenodd" clip-rule="evenodd" d="M54.6417 33.9465H95.6136C96.0462 33.9465 96.4611 34.1184 96.767 34.4243C97.0729 34.7302 97.2448 35.1451 97.2448 35.5777V55.9319C97.2448 56.3645 97.0729 56.7794 96.767 57.0853C96.4611 57.3912 96.0462 57.5631 95.6136 57.5631H54.6417C54.2091 57.5631 53.7942 57.3912 53.4883 57.0853C53.1824 56.7794 53.0106 56.3645 53.0106 55.9319V35.5777C53.0106 35.1451 53.1824 34.7302 53.4883 34.4243C53.7942 34.1184 54.2091 33.9465 54.6417 33.9465ZM54.8554 66.4177H95.3999C95.8892 66.4177 96.3584 66.6121 96.7044 66.958C97.0504 67.304 97.2448 67.7733 97.2448 68.2625C97.2448 68.7518 97.0504 69.2211 96.7044 69.567C96.3584 69.913 95.8892 70.1074 95.3999 70.1074H54.8554C54.3661 70.1074 53.8969 69.913 53.5509 69.567C53.2049 69.2211 53.0106 68.7518 53.0106 68.2625C53.0106 67.7733 53.2049 67.304 53.5509 66.958C53.8969 66.6121 54.3661 66.4177 54.8554 66.4177ZM54.8554 76.0113H95.3999C95.8893 76.0113 96.3587 76.2057 96.7047 76.5517C97.0508 76.8978 97.2452 77.3671 97.2452 77.8565C97.2452 78.3459 97.0508 78.8152 96.7047 79.1613C96.3587 79.5073 95.8893 79.7018 95.3999 79.7018H54.8554C54.366 79.7018 53.8967 79.5073 53.5506 79.1613C53.2046 78.8152 53.0102 78.3459 53.0102 77.8565C53.0102 77.3671 53.2046 76.8978 53.5506 76.5517C53.8967 76.2057 54.366 76.0113 54.8554 76.0113ZM119.182 111.49C118.55 113.995 116.33 115.862 113.689 115.862H36.5662C33.9254 115.862 31.7054 113.994 31.0741 111.49C30.9537 111.013 30.8929 110.523 30.8931 110.03V82.6541H52.3573C54.7282 82.6541 56.639 84.6506 56.639 87.0745V87.1071C56.639 89.5302 58.572 91.4868 60.9428 91.4868H89.3125C91.6834 91.4868 93.6163 89.5123 93.6163 87.0884V87.0786C93.6163 84.6547 95.5272 82.6533 97.898 82.6533H119.362V110.031C119.362 110.534 119.299 111.023 119.182 111.49Z" fill="#CDD8E0"/>
<path fill-rule="evenodd" clip-rule="evenodd" d="M121.88 27.152L116.31 29.3133C116.166 29.3689 116.011 29.3831 115.86 29.354C115.709 29.325 115.569 29.254 115.457 29.1492C115.345 29.0444 115.265 28.9101 115.225 28.7616C115.186 28.6132 115.19 28.4567 115.235 28.3101L116.815 23.2479C114.704 20.8468 113.464 17.9189 113.464 14.7594C113.464 6.60776 121.716 0 131.896 0C142.073 0 150.326 6.60776 150.326 14.7594C150.326 22.911 142.074 29.5188 131.895 29.5188C128.202 29.5188 124.764 28.6494 121.88 27.152Z" fill="#CDD8E0"/>
<path d="M139.156 17.4247C140.439 17.4247 141.48 16.3968 141.48 15.1288C141.48 13.8609 140.439 12.833 139.156 12.833C137.873 12.833 136.833 13.8609 136.833 15.1288C136.833 16.3968 137.873 17.4247 139.156 17.4247Z" fill="white"/>
<path fill-rule="evenodd" clip-rule="evenodd" d="M126.958 17.1376H122.311L124.675 13.1201L126.958 17.1376ZM129.863 13.1201H133.928V17.1376H129.863V13.1201Z" fill="white"/>
</svg>
