<svg width="24" height="24" viewBox="0 0 24 24" fill="none" xmlns="http://www.w3.org/2000/svg">
<path d="M21.4286 0C22.1429 0 22.75 0.249998 23.25 0.75C23.75 1.25 24 1.85714 24 2.57143V21.4286C24 22.1429 23.75 22.75 23.25 23.25C22.75 23.75 22.1429 24 21.4286 24H2.57143C1.85714 24 1.25 23.75 0.75 23.25C0.249998 22.75 0 22.1429 0 21.4286V2.57143C0 1.85714 0.249998 1.25 0.75 0.75C1.25 0.249998 1.85714 0 2.57143 0H21.4286ZM14.8393 20.5714C16.625 19.9643 18.0625 18.8839 19.1518 17.3304C20.2411 15.7768 20.7857 14.0179 20.7857 12.0536C20.7857 9.62499 19.9197 7.58037 18.1875 5.91964C16.4553 4.25892 14.3572 3.42857 11.8929 3.42857C9.42856 3.42857 7.36608 4.25892 5.70536 5.91964C4.04463 7.58037 3.21429 9.62499 3.21429 12.0536C3.21429 14.0179 3.76785 15.7768 4.875 17.3304C5.98215 18.8839 7.42856 19.9643 9.21429 20.5714C9.64286 20.6429 9.85714 20.5 9.85714 20.1429C9.85714 20.1071 9.84821 19.8036 9.83036 19.2321C9.8125 18.6607 9.80357 18.2321 9.80357 17.9464C9.73214 17.9821 9.64286 18.0089 9.53571 18.0268C9.42857 18.0446 9.22322 18.0536 8.91964 18.0536C8.61607 18.0536 8.33929 18.0268 8.08928 17.9732C7.83928 17.9196 7.58929 17.8036 7.33929 17.625C7.08928 17.4464 6.91071 17.1964 6.80357 16.875C6.55357 16.1964 6.23214 15.7679 5.83929 15.5893C5.83929 15.5893 5.71429 15.4643 5.46429 15.2143C5.46429 15.1071 5.60714 15.0536 5.89286 15.0536C6.46429 15.0893 6.91071 15.3929 7.23214 15.9643C7.83929 17 8.71428 17.25 9.85714 16.7143C9.92857 16.1786 10.1071 15.7857 10.3929 15.5357C9.75 15.4643 9.25 15.3839 8.89286 15.2946C8.53571 15.2054 8.13393 15.0357 7.6875 14.7857C7.24107 14.5357 6.91964 14.1429 6.72321 13.6071C6.52678 13.0714 6.42857 12.4107 6.42857 11.625C6.42857 10.8393 6.71428 10.1429 7.28571 9.53571C6.96428 8.82142 6.98214 8.01786 7.33929 7.125C7.55357 7.05357 7.86607 7.09821 8.27679 7.25893C8.6875 7.41964 9.05357 7.58928 9.375 7.76786L9.80357 8.03571C10.5179 7.85714 11.2589 7.76786 12.0268 7.76786C12.7946 7.76786 13.5357 7.85714 14.25 8.03571C14.3929 7.96428 14.5625 7.86607 14.7589 7.74107C14.9554 7.61607 15.2768 7.46429 15.7232 7.28571C16.1696 7.10714 16.5 7.05357 16.7143 7.125C17.0714 7.98215 17.1071 8.78571 16.8214 9.53571C17.4286 10.1786 17.7321 10.875 17.7321 11.625C17.7321 12.4107 17.625 13.0714 17.4107 13.6071C17.1964 14.1429 16.8571 14.5357 16.3929 14.7857C15.9286 15.0357 15.5179 15.2054 15.1607 15.2946C14.8036 15.3839 14.3036 15.4643 13.6607 15.5357C14.0536 15.8571 14.25 16.3929 14.25 17.1429C14.25 17.6429 14.25 18.2589 14.25 18.9911C14.25 19.7232 14.25 20.1071 14.25 20.1429C14.25 20.5 14.4464 20.6429 14.8393 20.5714ZM9.75 17.1429C9.78571 17.2143 9.74107 17.2589 9.61607 17.2768C9.49107 17.2946 9.41964 17.2589 9.40179 17.1696C9.38393 17.0804 9.42857 17.0357 9.53571 17.0357C9.67857 17 9.75 17.0357 9.75 17.1429ZM9.10714 17.25C9.10714 17.1429 9.03572 17.0893 8.89286 17.0893C8.75 17.0893 8.67857 17.1429 8.67857 17.25C8.67857 17.3214 8.75 17.3571 8.89286 17.3571C9.03572 17.3571 9.10714 17.3214 9.10714 17.25ZM8.19643 16.9821C8.33929 17.0179 8.39286 17.0804 8.35714 17.1696C8.32143 17.2589 8.25 17.2857 8.14286 17.25C8 17.2143 7.94643 17.1518 7.98214 17.0625C8.01786 16.9732 8.08929 16.9464 8.19643 16.9821ZM7.71429 16.875C7.75 16.8393 7.72321 16.7679 7.63393 16.6607C7.54464 16.5536 7.46429 16.5357 7.39286 16.6071C7.35714 16.6786 7.375 16.7679 7.44643 16.875C7.55357 16.9464 7.64286 16.9464 7.71429 16.875ZM7.23214 16.3929C7.30357 16.3571 7.30357 16.2857 7.23214 16.1786C7.16071 16.0714 7.08929 16.0536 7.01786 16.125C6.94643 16.1607 6.94643 16.2232 7.01786 16.3125C7.08929 16.4018 7.16071 16.4286 7.23214 16.3929ZM6.69643 15.8571C6.76786 15.9286 6.83036 15.9375 6.88393 15.8839C6.9375 15.8304 6.92857 15.7679 6.85714 15.6964C6.78571 15.625 6.72321 15.6161 6.66964 15.6696C6.61607 15.7232 6.625 15.7857 6.69643 15.8571ZM6.48214 15.4821C6.51786 15.4464 6.5 15.3929 6.42857 15.3214C6.35714 15.3214 6.30357 15.3393 6.26786 15.375C6.23214 15.4107 6.26786 15.4464 6.375 15.4821C6.44643 15.5536 6.48214 15.5536 6.48214 15.4821Z" fill="#249CF3"/>
</svg>
