<svg width="24" height="24" viewBox="0 0 24 24" fill="none" xmlns="http://www.w3.org/2000/svg">
<path d="M23 1H1C0.4 1 0 1.4 0 2C0 2.6 0.4 3 1 3H11V5H3C2.4 5 2 5.4 2 6V22C2 22.6 2.4 23 3 23H21C21.6 23 22 22.6 22 22V6C22 5.4 21.6 5 21 5H13V3H23C23.6 3 24 2.6 24 2C24 1.4 23.6 1 23 1ZM18 14C18 17.3 15.3 20 12 20C8.7 20 6 17.3 6 14C6 10.7 8.7 8 12 8C15.3 8 18 10.7 18 14Z" fill="#063554"/>
<path d="M12 15C11.7 15 11.5 14.9 11.3 14.7L9.3 12.7C8.9 12.3 8.9 11.7 9.3 11.3C9.7 10.9 10.3 10.9 10.7 11.3L12.7 13.3C13.1 13.7 13.1 14.3 12.7 14.7C12.5 14.9 12.3 15 12 15Z" fill="#063554"/>
</svg>
