<svg width="24" height="24" viewBox="0 0 24 24" fill="none" xmlns="http://www.w3.org/2000/svg">
<path d="M12 0C5.383 0 0 5.383 0 12C0 18.617 5.383 24 12 24C18.617 24 24 18.617 24 12C24 5.383 18.617 0 12 0ZM11 3H13V6H11V3ZM6 13H3V11H6V13ZM12 15C10.346 15 9 13.654 9 12C9 11.538 9.113 11.106 9.3 10.715L4.909 6.323L6.323 4.909L10.714 9.301C11.106 9.114 11.538 9 12 9C13.654 9 15 10.346 15 12C15 13.654 13.654 15 12 15ZM15.536 7.05L17.657 4.929L19.071 6.343L16.95 8.464L15.536 7.05ZM18 13V11H21V13H18Z" fill="#063554"/>
</svg>
