<svg width="24" height="24" viewBox="0 0 24 24" fill="none" xmlns="http://www.w3.org/2000/svg">
<g clip-path="url(#clip0_2353_93252)">
<path d="M19 11.243V4C19 2.93913 18.5786 1.92172 17.8284 1.17157C17.0783 0.421427 16.0609 0 15 0C13.9391 0 12.9217 0.421427 12.1716 1.17157C11.4214 1.92172 11 2.93913 11 4V11.243C9.77702 12.0946 8.85772 13.3142 8.37592 14.7245C7.89412 16.1347 7.87496 17.6619 8.32123 19.0838C8.7675 20.5056 9.6559 21.748 10.8571 22.63C12.0584 23.512 13.5097 23.9876 15 23.9876C16.4903 23.9876 17.9416 23.512 19.1429 22.63C20.3441 21.748 21.2325 20.5056 21.6788 19.0838C22.125 17.6619 22.1059 16.1347 21.6241 14.7245C21.1423 13.3142 20.223 12.0946 19 11.243ZM15 21C13.9391 21 12.9217 20.5786 12.1716 19.8284C11.4214 19.0783 11 18.0609 11 17H19C19 18.0609 18.5786 19.0783 17.8284 19.8284C17.0783 20.5786 16.0609 21 15 21Z" fill="#063554"/>
<path d="M8 2H2V4H8V2Z" fill="#063554"/>
<path d="M8 7H2V9H8V7Z" fill="#063554"/>
<path d="M6 12H2V14H6V12Z" fill="#063554"/>
</g>
<defs>
<clipPath id="clip0_2353_93252">
<rect width="24" height="24" fill="white"/>
</clipPath>
</defs>
</svg>
