<svg width="24" height="24" viewBox="0 0 24 24" fill="none" xmlns="http://www.w3.org/2000/svg">
<g clip-path="url(#clip0_2353_6333)">
<path d="M23.0001 1H1.00008C0.640083 1 0.308083 1.194 0.130083 1.507C-0.0479166 1.82 -0.0429166 2.205 0.143083 2.514L3.00008 7.277V22C3.00008 23.105 3.89508 24 5.00008 24H18.0001C19.1051 24 20.0001 23.105 20.0001 22V11H21.0001C22.6571 11 24.0001 9.657 24.0001 8V2C24.0001 1.448 23.5521 1 23.0001 1ZM17.0001 17H12.0001V15H17.0001V17ZM17.0001 13H12.0001V11H17.0001V13ZM17.0001 9H12.0001V7H17.0001V9ZM22.0001 8C22.0001 8.551 21.5521 9 21.0001 9H20.0001V3H22.0001V8Z" fill="#063554"/>
</g>
<defs>
<clipPath id="clip0_2353_6333">
<rect width="24" height="24" fill="white"/>
</clipPath>
</defs>
</svg>
